<?xml version="1.0" encoding="utf-8"?>
<!-- Generator: Adobe Illustrator 21.1.0, SVG Export Plug-In . SVG Version: 6.00 Build 0)  -->
<svg version="1.1" id="Layer_1" xmlns="http://www.w3.org/2000/svg" xmlns:xlink="http://www.w3.org/1999/xlink" x="0px" y="0px"
	 width="46px" height="21px" viewBox="0 0 46 21" enable-background="new 0 0 46 21" xml:space="preserve">
<g>
	<path fill="#FFFFFF" d="M34.215,21c-0.553,0-1.119-0.039-1.676-0.123c-4.667-0.666-7.787-4.018-9.535-6.594
		c-1.754,2.577-4.874,5.932-9.539,6.597c-0.555,0.08-1.12,0.119-1.676,0.119c-2.901,0-5.625-1.079-7.674-3.04
		c-2.068-1.977-3.21-4.63-3.21-7.459c0-2.832,1.141-5.482,3.212-7.462C6.165,1.077,8.89,0,11.793,0c0.553,0,1.116,0.039,1.671,0.119
		c4.665,0.665,7.785,4.018,9.539,6.594c1.748-2.577,4.868-5.928,9.535-6.594C33.096,0.039,33.659,0,34.212,0
		c2.901,0,5.627,1.079,7.674,3.038c2.07,1.981,3.209,4.63,3.209,7.462c0,2.829-1.136,5.482-3.206,7.459
		C39.838,19.92,37.116,21,34.215,21 M25.07,10.501c0.911,1.736,3.6,6.067,7.995,6.697c0.385,0.053,0.772,0.082,1.149,0.082
		c3.948,0,7.161-3.04,7.161-6.78s-3.212-6.78-7.164-6.78c-0.377,0-0.765,0.027-1.146,0.082C28.67,4.43,25.981,8.762,25.07,10.501
		 M11.793,3.721c-3.953,0-7.167,3.04-7.167,6.78c0,3.739,3.212,6.78,7.162,6.78c0.379,0,0.767-0.03,1.151-0.082
		c4.395-0.629,7.083-4.958,7.995-6.697c-0.909-1.736-3.6-6.071-7.995-6.697C12.559,3.748,12.171,3.721,11.793,3.721"/>
	<rect x="8.794" y="9.474" fill="#FFFFFF" width="6.536" height="2.106"/>
	<polygon fill="#FFFFFF" points="37.149,9.474 34.936,9.474 34.936,7.258 32.823,7.258 32.823,9.474 30.611,9.474 30.611,11.58 
		32.823,11.58 32.823,13.796 34.936,13.796 34.936,11.58 37.149,11.58 	"/>
</g>
</svg>
